<svg width="64" height="64" xmlns="http://www.w3.org/2000/svg">

 <g>
  <title>background</title>
  <rect fill="none" id="canvas_background" height="66" width="66" y="-1" x="-1"/>
 </g>
 <g>
  <g transform="rotate(-178.1246795654297 69.72886657714844,51.9484748840332) " stroke="null" id="svg_44">
   <title id="svg_36" stroke="null">Layer 1</title>
   <path stroke="null" id="svg_37" fill="#CFD8DC" d="m91.825526,57.005686l-0.67657,-0.58631l1.69141,-1.46578l0.67656,0.58631c0.38661,0.33503 0.38661,0.83759 0,1.17262l-0.33828,0.29316c-0.33828,0.33504 -0.96652,0.33504 -1.35312,0z"/>
   <path stroke="null" id="svg_38" fill="#263238" d="m99.944276,64.041436c-0.43493,0 -0.86986,-0.12564 -1.20814,-0.41879l-6.62066,-6.03065c-0.67656,-0.58631 1.40145,-2.34525 2.02969,-1.75894l6.95894,5.73749c0.67656,0.58632 0.67656,1.50767 0,2.09398c-0.28996,0.25127 -0.72489,0.37691 -1.15983,0.37691z"/>
   <circle stroke="null" id="svg_39" r="9.213487" fill="#BDBDBD" cy="49.593017" cx="84.96324"/>
   <circle stroke="null" id="svg_40" r="8.794692" fill="#212121" cy="49.593017" cx="84.96324"/>
   <circle stroke="null" id="svg_41" r="7.119512" fill="#424242" cy="49.593017" cx="84.96324"/>
   <circle stroke="null" id="svg_42" r="5.444334" fill="#FBE9E7" cy="50.849402" cx="86.413018"/>
   <circle stroke="null" id="svg_43" r="2.093974" fill="#FFC107" cy="52.943376" cx="88.829315"/>
  </g>
  <g transform="rotate(94.86051177978516 50.36186599731445,13.608255386352534) " stroke="null" id="svg_53">
   <title id="svg_45" stroke="null">Layer 1</title>
   <path stroke="null" id="svg_46" fill="#CFD8DC" d="m53.506755,18.403457l-0.67657,-0.58631l1.69141,-1.46578l0.67656,0.58631c0.38661,0.33503 0.38661,0.83759 0,1.17262l-0.33828,0.29316c-0.33828,0.33504 -0.96652,0.33504 -1.35312,0z"/>
   <path stroke="null" id="svg_47" fill="#263238" d="m61.625505,25.439207c-0.43493,0 -0.86986,-0.12564 -1.20814,-0.41879l-6.62066,-6.03065c-0.67656,-0.58631 1.40145,-2.34525 2.02969,-1.75894l6.95894,5.73749c0.67656,0.58632 0.67656,1.50767 0,2.09398c-0.28996,0.25127 -0.72489,0.37691 -1.15983,0.37691z"/>
   <circle stroke="null" id="svg_48" r="9.213487" fill="#BDBDBD" cy="10.990791" cx="46.644468"/>
   <circle stroke="null" id="svg_49" r="8.794692" fill="#212121" cy="10.990791" cx="46.644468"/>
   <circle stroke="null" id="svg_50" r="7.119512" fill="#424242" cy="10.990791" cx="46.644468"/>
   <circle stroke="null" id="svg_51" r="5.444334" fill="#FBE9E7" cy="12.247175" cx="48.094246"/>
   <circle stroke="null" id="svg_52" r="2.093974" fill="#FFC107" cy="14.34115" cx="50.510543"/>
  </g>
  <g transform="rotate(0.9152190685272217 12.807667732238642,15.529634475707963) " stroke="null" id="svg_71">
   <title id="svg_63" stroke="null">Layer 1</title>
   <path stroke="null" id="svg_64" fill="#CFD8DC" d="m15.952554,20.32484l-0.67657,-0.58631l1.69141,-1.46578l0.67656,0.58631c0.38661,0.33503 0.38661,0.83759 0,1.17262l-0.33828,0.29316c-0.33828,0.33504 -0.96652,0.33504 -1.35312,0z"/>
   <path stroke="null" id="svg_65" fill="#263238" d="m24.071304,27.36059c-0.43493,0 -0.86986,-0.12564 -1.20814,-0.41879l-6.62066,-6.03065c-0.67656,-0.58631 1.40145,-2.34525 2.02969,-1.75894l6.95894,5.73749c0.67656,0.58632 0.67656,1.50767 0,2.09398c-0.28996,0.25127 -0.72489,0.37691 -1.15983,0.37691z"/>
   <circle stroke="null" id="svg_66" r="9.213487" fill="#BDBDBD" cy="12.912169" cx="9.090267"/>
   <circle stroke="null" id="svg_67" r="8.794692" fill="#212121" cy="12.912169" cx="9.090267"/>
   <circle stroke="null" id="svg_68" r="7.119512" fill="#424242" cy="12.912169" cx="9.090267"/>
   <circle stroke="null" id="svg_69" r="5.444334" fill="#FBE9E7" cy="14.168553" cx="10.540045"/>
   <circle stroke="null" id="svg_70" r="2.093974" fill="#FFC107" cy="16.262528" cx="12.956341"/>
  </g>
  <g transform="rotate(-84.2820816040039 13.157007217407225,50.900455474853516) " stroke="null" id="svg_80">
   <title id="svg_72" stroke="null">Layer 1</title>
   <path stroke="null" id="svg_73" fill="#CFD8DC" d="m16.301894,55.695656l-0.67657,-0.58631l1.69141,-1.46578l0.67656,0.58631c0.38661,0.33503 0.38661,0.83759 0,1.17262l-0.33828,0.29316c-0.33828,0.33504 -0.96652,0.33504 -1.35312,0z"/>
   <path stroke="null" id="svg_74" fill="#263238" d="m24.420644,62.731406c-0.43493,0 -0.86986,-0.12564 -1.20814,-0.41879l-6.62066,-6.03065c-0.67656,-0.58631 1.40145,-2.34525 2.02969,-1.75894l6.95894,5.73749c0.67656,0.58632 0.67656,1.50767 0,2.09398c-0.28996,0.25127 -0.72489,0.37691 -1.15983,0.37691z"/>
   <circle stroke="null" id="svg_75" r="9.213487" fill="#BDBDBD" cy="48.282987" cx="9.439608"/>
   <circle stroke="null" id="svg_76" r="8.794692" fill="#212121" cy="48.282987" cx="9.439608"/>
   <circle stroke="null" id="svg_77" r="7.119512" fill="#424242" cy="48.282987" cx="9.439608"/>
   <circle stroke="null" id="svg_78" r="5.444334" fill="#FBE9E7" cy="49.539371" cx="10.889386"/>
   <circle stroke="null" id="svg_79" r="2.093974" fill="#FFC107" cy="51.633345" cx="13.305683"/>
  </g>
  <g stroke="null" id="svg_82">
   <circle stroke="null" id="svg_3" r="11.833546" fill="#BDBDBD" cy="32.824629" cx="32.234136"/>
   <circle stroke="null" id="svg_4" r="11.295656" fill="#212121" cy="32.824629" cx="32.234136"/>
   <circle stroke="null" id="svg_5" r="9.144102" fill="#424242" cy="32.824629" cx="32.234136"/>
   <circle stroke="null" id="svg_6" r="6.992549" fill="#FBE9E7" cy="34.438295" cx="34.096191"/>
   <circle stroke="null" id="svg_7" r="2.689441" fill="#FFC107" cy="37.127737" cx="37.199615"/>
  </g>
  <g transform="rotate(-133.02410888671875 76.91181182861328,37.45080566406251) " stroke="null" id="svg_91">
   <title id="svg_83" stroke="null">Layer 1</title>
   <path stroke="null" id="svg_84" fill="#CFD8DC" d="m80.056699,42.246008l-0.67657,-0.58631l1.69141,-1.46578l0.67656,0.58631c0.38661,0.33503 0.38661,0.83759 0,1.17262l-0.33828,0.29316c-0.33828,0.33504 -0.96652,0.33504 -1.35312,0z"/>
   <path stroke="null" id="svg_85" fill="#263238" d="m88.175449,49.281758c-0.43493,0 -0.86986,-0.12564 -1.20814,-0.41879l-6.62066,-6.03065c-0.67656,-0.58631 1.40145,-2.34525 2.02969,-1.75894l6.95894,5.73749c0.67656,0.58632 0.67656,1.50767 0,2.09398c-0.28996,0.25127 -0.72489,0.37691 -1.15983,0.37691z"/>
   <circle stroke="null" id="svg_86" r="9.213487" fill="#BDBDBD" cy="34.833342" cx="73.194414"/>
   <circle stroke="null" id="svg_87" r="8.794692" fill="#212121" cy="34.833342" cx="73.194414"/>
   <circle stroke="null" id="svg_88" r="7.119512" fill="#424242" cy="34.833342" cx="73.194414"/>
   <circle stroke="null" id="svg_89" r="5.444334" fill="#FBE9E7" cy="36.089726" cx="74.644192"/>
   <circle stroke="null" id="svg_90" r="2.093974" fill="#FFC107" cy="38.1837" cx="77.060489"/>
  </g>
 </g>
</svg>